<svg width="70" height="70" viewBox="0 0 70 70" fill="none" xmlns="http://www.w3.org/2000/svg">
<g clip-path="url(#clip0_4327_11132)">
<path d="M27.6858 21.5907L27.6858 15.4955" stroke="white" stroke-width="1.55556"/>
<circle cx="27.6855" cy="13.0572" r="2.87934" transform="rotate(-180 27.6855 13.0572)" stroke="white" stroke-width="1.55556"/>
<path d="M42.3141 21.5907L42.3141 15.4955" stroke="white" stroke-width="1.55556"/>
<circle cx="42.3142" cy="13.0572" r="2.87934" transform="rotate(-180 42.3142 13.0572)" stroke="white" stroke-width="1.55556"/>
<path d="M34.9999 21.5907L34.9999 6.96221" stroke="white" stroke-width="1.55556"/>
<circle cx="35" cy="4.52397" r="2.87934" transform="rotate(-180 35 4.52397)" stroke="white" stroke-width="1.55556"/>
<path d="M42.3141 48.4095L42.3141 54.5047" stroke="white" stroke-width="1.55556"/>
<circle cx="42.3143" cy="56.9431" r="2.87934" stroke="white" stroke-width="1.55556"/>
<path d="M27.6858 48.4095L27.6858 54.5047" stroke="white" stroke-width="1.55556"/>
<circle cx="27.6857" cy="56.9431" r="2.87934" stroke="white" stroke-width="1.55556"/>
<path d="M35 48.4095L35 63.038" stroke="white" stroke-width="1.55556"/>
<circle cx="34.9999" cy="65.4763" r="2.87934" stroke="white" stroke-width="1.55556"/>
<path d="M48.4094 27.6857L54.5046 27.6857" stroke="white" stroke-width="1.55556"/>
<circle cx="56.9428" cy="27.6863" r="2.87934" transform="rotate(-90 56.9428 27.6863)" stroke="white" stroke-width="1.55556"/>
<path d="M48.4094 42.3146L54.5046 42.3146" stroke="white" stroke-width="1.55556"/>
<circle cx="56.9428" cy="42.3143" r="2.87934" transform="rotate(-90 56.9428 42.3143)" stroke="white" stroke-width="1.55556"/>
<path d="M48.4094 35L63.0379 35" stroke="white" stroke-width="1.55556"/>
<circle cx="65.476" cy="34.9996" r="2.87934" transform="rotate(-90 65.476 34.9996)" stroke="white" stroke-width="1.55556"/>
<path d="M21.5901 42.3145L15.4949 42.3145" stroke="white" stroke-width="1.55556"/>
<circle cx="13.0567" cy="42.3139" r="2.87934" transform="rotate(90 13.0567 42.3139)" stroke="white" stroke-width="1.55556"/>
<path d="M21.5901 27.6858L15.4949 27.6858" stroke="white" stroke-width="1.55556"/>
<circle cx="13.0567" cy="27.6861" r="2.87934" transform="rotate(90 13.0567 27.6861)" stroke="white" stroke-width="1.55556"/>
<path d="M21.5901 35.0002L6.96163 35.0002" stroke="white" stroke-width="1.55556"/>
<circle cx="4.52354" cy="35.0006" r="2.87934" transform="rotate(90 4.52354 35.0006)" stroke="white" stroke-width="1.55556"/>
<path d="M35.0002 27.6855C33.5535 27.6855 32.1394 28.1145 30.9366 28.9182C29.7338 29.7219 28.7963 30.8642 28.2427 32.2007C27.6891 33.5373 27.5442 35.0079 27.8265 36.4267C28.1087 37.8455 28.8053 39.1488 29.8282 40.1717C30.8511 41.1947 32.1544 41.8913 33.5732 42.1735C34.9921 42.4557 36.4627 42.3109 37.7992 41.7573C39.1357 41.2037 40.278 40.2662 41.0817 39.0634C41.8854 37.8605 42.3144 36.4464 42.3144 34.9998C42.3122 33.0606 41.5409 31.2014 40.1697 29.8302C38.7985 28.459 36.9394 27.6877 35.0002 27.6855V27.6855ZM35.4304 34.5648V32.4256C36.2813 32.4172 37.1125 32.3842 37.9122 32.3272C38.0708 33.022 38.1663 33.7296 38.1977 34.4416C37.312 34.5133 36.3828 34.555 35.4304 34.5648V34.5648ZM38.2053 35.3039C38.1879 36.0539 38.0998 36.8005 37.9422 37.534C37.1302 37.5943 36.287 37.6296 35.4304 37.6386V35.4252C36.3832 35.4156 37.3147 35.3746 38.2053 35.3039V35.3039ZM35.4304 31.5651V30.1528C35.9688 30.1299 36.5031 30.0487 37.0239 29.9105C37.2917 30.4125 37.513 30.938 37.685 31.4803C36.9568 31.5289 36.2024 31.5574 35.4304 31.5651ZM35.0002 28.546C35.7533 28.5476 36.5003 28.682 37.2068 28.9428C36.4981 29.1915 35.7512 29.3142 35.0002 29.3053C34.2491 29.3142 33.5023 29.1915 32.7935 28.9428C33.5001 28.682 34.247 28.5476 35.0002 28.546V28.546ZM32.81 29.8585C33.3823 30.0288 33.9734 30.1277 34.5699 30.1528V31.5651C33.7305 31.5567 32.9113 31.524 32.1247 31.4674C32.302 30.9107 32.5314 30.372 32.81 29.8585V29.8585ZM31.6088 34.4259C31.641 33.7147 31.7374 33.008 31.8967 32.3142C32.7543 32.3798 33.6514 32.4166 34.5699 32.4256V34.5647C33.5481 34.5543 32.5519 34.5075 31.6088 34.4259ZM34.5699 35.4252V37.6386C33.6439 37.6289 32.7326 37.5887 31.8606 37.5192C31.704 36.7853 31.6168 36.0383 31.6002 35.2881C32.5491 35.3685 33.5474 35.4149 34.5699 35.4252ZM31.7928 29.4074C31.8609 29.4509 31.935 29.4911 32.0099 29.5312C31.6972 30.1262 31.4434 30.7502 31.2521 31.3946C30.7444 31.345 30.2527 31.2858 29.7833 31.216C30.3188 30.4788 31.0035 29.8626 31.7928 29.4074V29.4074ZM29.2875 32.0068C29.842 32.0977 30.4241 32.1747 31.0339 32.2377C30.8812 32.9295 30.7866 33.6329 30.7511 34.3405C29.9927 34.2548 29.2816 34.1453 28.6298 34.0144C28.7363 33.3134 28.9586 32.635 29.2875 32.0068V32.0068ZM28.5464 34.9998C28.5464 34.9583 28.5519 34.9182 28.5527 34.8769C29.2262 35.0087 29.9593 35.1181 30.7373 35.204C30.7475 35.9534 30.823 36.7004 30.9629 37.4367C30.2378 37.3597 29.5532 37.2612 28.9204 37.144C28.6744 36.4558 28.5479 35.7306 28.5464 34.9998V34.9998ZM31.7928 40.5922C30.7601 39.999 29.9104 39.1334 29.3365 38.09C29.915 38.1824 30.5306 38.2592 31.1706 38.3215C31.3705 39.0658 31.6519 39.7858 32.0099 40.4683C31.935 40.5084 31.8609 40.5488 31.7928 40.5922V40.5922ZM34.5699 38.499V39.8468C33.9734 39.8719 33.3823 39.9708 32.81 40.1411C32.5109 39.5862 32.2685 39.0025 32.0866 38.3989C32.8917 38.4566 33.725 38.4904 34.5699 38.499ZM35.0002 41.4535C34.247 41.4519 33.5001 41.3176 32.7936 41.0567C33.5023 40.808 34.2491 40.6854 35.0002 40.6943C35.7512 40.6854 36.498 40.808 37.2068 41.0567C36.5003 41.3176 35.7533 41.4519 35.0002 41.4535V41.4535ZM37.0239 40.089C36.5031 39.9509 35.9688 39.8697 35.4304 39.8468V38.499C36.2057 38.4911 36.9721 38.4631 37.7151 38.4137C37.5393 38.9931 37.3078 39.5542 37.0239 40.089V40.089ZM38.2076 40.5922C38.0892 40.5165 37.9662 40.4482 37.8395 40.3876C38.1736 39.7348 38.4384 39.0489 38.6298 38.3411C39.3422 38.2759 40.0251 38.1921 40.6638 38.09C40.0899 39.1335 39.2402 39.999 38.2076 40.5922V40.5922ZM41.4539 34.9998C41.4524 35.7306 41.3259 36.4558 41.08 37.144C40.3901 37.2717 39.6365 37.3762 38.8389 37.4561C38.98 36.7204 39.0567 35.9739 39.0681 35.2249C39.9184 35.1362 40.7182 35.0197 41.4477 34.8769C41.4485 34.9182 41.4539 34.9583 41.4539 34.9998ZM41.3706 34.0144C40.6638 34.1563 39.886 34.2725 39.0556 34.3612C39.0212 33.6528 38.9277 32.9485 38.776 32.2556C39.4539 32.1906 40.1012 32.1071 40.7128 32.0068C41.0418 32.635 41.264 33.3134 41.3706 34.0144ZM38.5588 31.4114C38.3756 30.7905 38.1348 30.1881 37.8395 29.612C37.9662 29.5514 38.0892 29.4831 38.2076 29.4074C38.9969 29.8626 39.6815 30.4788 40.2171 31.216C39.6899 31.2944 39.1335 31.3586 38.5588 31.4114V31.4114Z" fill="white"/>
<rect x="21.5905" y="21.5908" width="26.8189" height="26.8189" rx="3.65712" stroke="white" stroke-width="1.55556"/>
</g>
<defs>
<clipPath id="clip0_4327_11132">
<rect width="70" height="70" fill="white"/>
</clipPath>
</defs>
</svg>
