<svg width="51" height="58" viewBox="0 0 51 58" fill="none" xmlns="http://www.w3.org/2000/svg">
<path d="M46.309 46.9861H41.8125V4.71886C41.8125 3.52631 41.3388 2.38261 40.4955 1.53935C39.6523 0.696089 38.5086 0.222351 37.316 0.222351L4.94115 0.222351C3.7486 0.222351 2.60489 0.696089 1.76163 1.53935C0.918374 2.38261 0.444636 3.52631 0.444636 4.71886V53.2812C0.440334 53.8698 0.554522 54.4532 0.7804 54.9967C1.00628 55.5402 1.33923 56.0328 1.75942 56.4449C2.17249 56.8701 2.6673 57.2074 3.21408 57.4365C3.76087 57.6655 4.34834 57.7816 4.94115 57.7777H46.309C47.5016 57.7777 48.6453 57.304 49.4886 56.4607C50.3318 55.6174 50.8056 54.4737 50.8056 53.2812V51.4826C50.8056 50.29 50.3318 49.1463 49.4886 48.3031C48.6453 47.4598 47.5016 46.9861 46.309 46.9861ZM9.43766 53.2812C9.43766 53.9967 9.15342 54.6829 8.64746 55.1889C8.1415 55.6948 7.45528 55.9791 6.73975 55.9791H4.94115C4.58509 55.9809 4.23238 55.9104 3.90436 55.7719C3.57635 55.6334 3.27985 55.4297 3.03283 55.1733C2.78055 54.9274 2.58056 54.633 2.44488 54.3078C2.30919 53.9827 2.24061 53.6335 2.24324 53.2812V4.71886C2.24324 4.00333 2.52748 3.31711 3.03344 2.81115C3.53939 2.3052 4.22562 2.02096 4.94115 2.02096H37.316C38.0316 2.02096 38.7178 2.3052 39.2237 2.81115C39.7297 3.31711 40.0139 4.00333 40.0139 4.71886V46.9861H13.9342C12.7416 46.9861 11.5979 47.4598 10.7547 48.3031C9.9114 49.1463 9.43766 50.29 9.43766 51.4826V53.2812ZM49.007 53.2812C49.007 53.9967 48.7227 54.6829 48.2168 55.1889C47.7108 55.6948 47.0246 55.9791 46.309 55.9791H10.337C10.3639 55.9449 10.3819 55.9035 10.4071 55.8694C10.4593 55.7956 10.5042 55.7183 10.5528 55.6409C10.648 55.4886 10.7339 55.3306 10.81 55.1679C10.8514 55.0816 10.8891 54.9881 10.9233 54.9053C10.9904 54.7292 11.0463 54.549 11.0906 54.3657C11.1122 54.2812 11.1373 54.2021 11.1535 54.1157C11.2071 53.8408 11.2348 53.5613 11.2363 53.2812V51.4826C11.2363 50.767 11.5205 50.0808 12.0265 49.5749C12.5324 49.0689 13.2186 48.7847 13.9342 48.7847H46.309C47.0246 48.7847 47.7108 49.0689 48.2168 49.5749C48.7227 50.0808 49.007 50.767 49.007 51.4826V53.2812ZM36.4167 33.4965C36.4167 33.258 36.322 33.0293 36.1533 32.8606C35.9847 32.692 35.7559 32.5972 35.5174 32.5972H6.73975C6.50124 32.5972 6.2725 32.692 6.10385 32.8606C5.9352 33.0293 5.84045 33.258 5.84045 33.4965C5.84045 33.735 5.9352 33.9638 6.10385 34.1324C6.2725 34.3011 6.50124 34.3958 6.73975 34.3958H35.5174C35.7559 34.3958 35.9847 34.3011 36.1533 34.1324C36.322 33.9638 36.4167 33.735 36.4167 33.4965ZM6.73975 23.6042H35.5174C35.7559 23.6042 35.9847 23.5095 36.1533 23.3408C36.322 23.1722 36.4167 22.9434 36.4167 22.7049C36.4167 22.4664 36.322 22.2377 36.1533 22.069C35.9847 21.9004 35.7559 21.8056 35.5174 21.8056H6.73975C6.50124 21.8056 6.2725 21.9004 6.10385 22.069C5.9352 22.2377 5.84045 22.4664 5.84045 22.7049C5.84045 22.9434 5.9352 23.1722 6.10385 23.3408C6.2725 23.5095 6.50124 23.6042 6.73975 23.6042ZM6.73975 29H35.5174C35.7559 29 35.9847 28.9053 36.1533 28.7366C36.322 28.568 36.4167 28.3392 36.4167 28.1007C36.4167 27.8622 36.322 27.6335 36.1533 27.4648C35.9847 27.2962 35.7559 27.2014 35.5174 27.2014H6.73975C6.50124 27.2014 6.2725 27.2962 6.10385 27.4648C5.9352 27.6335 5.84045 27.8622 5.84045 28.1007C5.84045 28.3392 5.9352 28.568 6.10385 28.7366C6.2725 28.9053 6.50124 29 6.73975 29ZM6.73975 18.2084H35.5174C35.7559 18.2084 35.9847 18.1136 36.1533 17.945C36.322 17.7763 36.4167 17.5476 36.4167 17.3091C36.4167 17.0706 36.322 16.8418 36.1533 16.6732C35.9847 16.5045 35.7559 16.4098 35.5174 16.4098H6.73975C6.50124 16.4098 6.2725 16.5045 6.10385 16.6732C5.9352 16.8418 5.84045 17.0706 5.84045 17.3091C5.84045 17.5476 5.9352 17.7763 6.10385 17.945C6.2725 18.1136 6.50124 18.2084 6.73975 18.2084Z" fill="white"/>
</svg>
