<svg xmlns="http://www.w3.org/2000/svg" xml:space="preserve" id="Layer_1" x="0" y="0" version="1.1" viewBox="0 0 500 500" fill="currentColor"><style>.st0{fill:#231F20;}</style><path d="M179.6 129.1c19.6-19.6 43-29.3 70.4-29.3s50.9 9.8 70.4 29.3c19.6 19.6 29.3 43 29.3 70.4 0 21.1-12.5 43-37.6 65.7-25 21.9-37.6 41.9-37.6 59.9h-49.3c0-18 3.9-33.3 11.7-45.8 7.8-13.3 16.4-22.7 25.8-28.2 9.4-6.3 18-13.7 25.8-22.3 7.8-8.6 11.7-18.4 11.7-29.3 0-13.3-5.1-24.6-15.3-34-10.2-10.2-21.9-15.3-35.2-15.3s-25 5.1-35.2 15.3c-10.2 9.4-15.3 20.7-15.3 34h-49.3c.3-27.4 10.1-50.8 29.7-70.4zM108 392c39.9 39.1 87.2 58.7 142 58.7s101.7-19.6 140.8-58.7c39.9-39.9 59.9-87.2 59.9-142s-20-101.7-59.9-140.8c-39.1-40-86-59.9-140.8-59.9-54.8 0-102.1 20-142 59.9-39.1 39.1-58.7 86-58.7 140.8 0 54.8 19.6 102.1 58.7 142zM72.8 73.9C122.1 24.6 181.1 0 250 0c68.9 0 127.5 24.6 176.1 73.9C475.4 122.5 500 181.1 500 250c0 68.9-24.6 127.9-73.9 177.2C377.5 475.7 318.9 500 250 500c-68.9 0-127.9-24.3-177.2-72.8C24.3 377.9 0 318.9 0 250c0-68.9 24.3-127.5 72.8-176.1zm152.6 326.3v-50.5h49.3v50.5h-49.3z" class="st0"/></svg>