<svg width="90" height="89" viewBox="0 0 90 89" fill="none" xmlns="http://www.w3.org/2000/svg">
<path fill-rule="evenodd" clip-rule="evenodd" d="M71.8423 27.8956C71.7866 27.801 71.7125 27.7185 71.6245 27.653C71.5364 27.5874 71.4362 27.5401 71.3296 27.5138C71.223 27.4876 71.1122 27.4829 71.0038 27.5001C70.8954 27.5172 70.7915 27.5559 70.6982 27.6138C70.605 27.6717 70.5242 27.7477 70.4607 27.8372C70.3973 27.9268 70.3523 28.0282 70.3286 28.1353C70.3048 28.2425 70.3028 28.3534 70.3225 28.4613C70.3422 28.5693 70.3833 28.6723 70.4434 28.7642C74.4823 35.2793 75.8724 43.094 74.328 50.6023C72.7836 58.1106 68.422 64.7422 62.1394 69.1343C55.8569 73.5264 48.1308 75.3453 40.5487 74.2172C32.9667 73.0892 26.1047 69.0998 21.3729 63.0691C16.641 57.0383 14.3989 49.4242 15.1071 41.7915C15.8154 34.1588 19.4202 27.0872 25.1809 22.0301C30.9416 16.9729 38.4204 14.3143 46.0806 14.6006C53.7408 14.8869 61.0003 18.0963 66.3675 23.5693C66.5203 23.7254 66.729 23.8144 66.9475 23.8167C67.1659 23.8189 67.3764 23.7343 67.5325 23.5814C67.6886 23.4285 67.7775 23.2199 67.7798 23.0014C67.7821 22.7829 67.6974 22.5725 67.5446 22.4164C61.9027 16.6657 54.2726 13.2941 46.2221 12.9943C38.1716 12.6944 30.3119 15.4891 24.2578 20.8042C18.2038 26.1193 14.4152 33.5511 13.6704 41.5727C12.9256 49.5943 15.2812 57.5966 20.2532 63.9354C25.2251 70.2742 32.4359 74.4682 40.4041 75.6557C48.3722 76.8432 56.4925 74.934 63.0967 70.3203C69.7009 65.7067 74.2874 58.739 75.914 50.8487C77.5405 42.9585 76.0835 34.745 71.8423 27.8956Z" fill="#13131A"/>
<path fill-rule="evenodd" clip-rule="evenodd" d="M44.9952 71.6777C50.9775 71.6775 56.7924 69.7033 61.5383 66.0614C66.2842 62.4194 69.6957 57.3133 71.2438 51.5349C72.7919 45.7564 72.39 39.6287 70.1005 34.1019C67.8111 28.5751 63.7619 23.9583 58.581 20.9673C53.4002 17.9764 47.3772 16.7785 41.4462 17.5595C35.5152 18.3406 30.0076 21.0568 25.7777 25.287C21.5477 29.5171 18.8318 35.0249 18.0511 40.9559C17.2704 46.887 18.4686 52.9099 21.4599 58.0906C21.5694 58.2799 21.7496 58.4179 21.9608 58.4743C22.1721 58.5308 22.3972 58.5009 22.5864 58.3914C22.7757 58.2819 22.9138 58.1017 22.9702 57.8905C23.0266 57.6792 22.9968 57.4541 22.8873 57.2649C19.6096 51.6024 18.6258 44.8993 20.1382 38.5338C21.6506 32.1683 25.5442 26.6241 31.0186 23.0411C36.493 19.458 43.132 18.1084 49.5708 19.2697C56.0097 20.4311 61.7589 24.0151 65.6365 29.2849C69.5141 34.5547 71.2255 41.1099 70.4187 47.6027C69.6119 54.0954 66.3483 60.0324 61.2988 64.1929C56.2494 68.3535 49.7979 70.4214 43.2706 69.9716C36.7434 69.5218 30.6366 66.5884 26.2056 61.7745C26.1348 61.6868 26.0467 61.6146 25.9468 61.5623C25.847 61.51 25.7375 61.4788 25.625 61.4705C25.5126 61.4623 25.3997 61.4772 25.2933 61.5144C25.1869 61.5516 25.0892 61.6102 25.0064 61.6866C24.9235 61.7631 24.8573 61.8557 24.8117 61.9588C24.7661 62.0619 24.7422 62.1732 24.7413 62.2859C24.7405 62.3987 24.7629 62.5103 24.807 62.6141C24.8511 62.7178 24.916 62.8114 24.9977 62.889C27.5389 65.6611 30.6291 67.8741 34.0719 69.3872C37.5147 70.9002 41.2346 71.6803 44.9952 71.6777Z" fill="#304FFE"/>
<path fill-rule="evenodd" clip-rule="evenodd" d="M56.059 56.7303L59.9417 60.6119C60.0181 60.6884 60.1088 60.7491 60.2086 60.7905C60.3085 60.8319 60.4155 60.8532 60.5236 60.8532C60.6317 60.8532 60.7388 60.8319 60.8386 60.7905C60.9385 60.7491 61.0292 60.6884 61.1056 60.6119C64.2918 57.4256 66.4616 53.366 67.3407 48.9465C68.2197 44.527 67.7685 39.9461 66.044 35.783C64.3196 31.62 61.3994 28.0618 57.6528 25.5584C53.9061 23.0549 49.5012 21.7188 44.9952 21.7188C40.4891 21.7188 36.0842 23.0549 32.3376 25.5584C28.5909 28.0618 25.6707 31.62 23.9463 35.783C22.2218 39.9461 21.7706 44.527 22.6497 48.9465C23.5287 53.366 25.6985 57.4256 28.8847 60.6119C28.9611 60.6884 29.0518 60.7491 29.1517 60.7905C29.2515 60.8319 29.3586 60.8532 29.4667 60.8532C29.5748 60.8532 29.6818 60.8319 29.7817 60.7905C29.8815 60.7491 29.9723 60.6884 30.0486 60.6119L33.9313 56.7303C34.0078 56.6538 34.0685 56.563 34.11 56.4631C34.1514 56.3631 34.1727 56.256 34.1727 56.1478C34.1727 56.0396 34.1514 55.9325 34.11 55.8325C34.0685 55.7326 34.0078 55.6418 33.9313 55.5653C31.0194 52.6337 29.3853 48.6693 29.3856 44.5374C29.3859 40.4054 31.0206 36.4413 33.9329 33.5101C36.8452 30.5789 40.7987 28.9187 44.9306 28.8918C49.0625 28.8648 53.0373 30.4733 55.9876 33.3662L56.059 33.4376C57.512 34.8905 58.6646 36.6153 59.451 38.5137C60.2373 40.412 60.6421 42.4467 60.6421 44.5014C60.6421 46.5562 60.2373 48.5909 59.451 50.4892C58.6646 52.3876 57.512 54.1124 56.059 55.5653C55.9825 55.6418 55.9218 55.7326 55.8804 55.8325C55.8389 55.9325 55.8176 56.0396 55.8176 56.1478C55.8176 56.256 55.8389 56.3631 55.8804 56.4631C55.9218 56.563 55.9825 56.6538 56.059 56.7303ZM32.1975 56.1341L29.4777 58.8539C25.8646 54.9477 23.8578 49.8224 23.8578 44.5014C23.8578 39.1805 25.8646 34.0552 29.4777 30.149L32.1975 32.8688C29.3041 36.0522 27.701 40.1996 27.701 44.5014C27.701 48.8033 29.3041 52.9507 32.1975 56.1341ZM33.3625 31.7038L30.6427 28.9839C34.5503 25.3736 39.675 23.3685 44.9952 23.3685C50.3153 23.3685 55.4401 25.3736 59.3476 28.9839L56.6278 31.7038C53.4434 28.8125 49.2963 27.2107 44.9952 27.2107C40.694 27.2107 36.547 28.8125 33.3625 31.7038ZM57.7928 32.8688L60.5127 30.149C64.1257 34.0552 66.1325 39.1805 66.1325 44.5014C66.1325 49.8224 64.1257 54.9477 60.5127 58.8539L57.7928 56.1341C60.6862 52.9507 62.2893 48.8033 62.2893 44.5014C62.2893 40.1996 60.6862 36.0522 57.7928 32.8688Z" fill="#13131A"/>
<path fill-rule="evenodd" clip-rule="evenodd" d="M52.1587 32.3822C51.9723 32.2685 51.7483 32.2333 51.5359 32.2843C51.3235 32.3354 51.14 32.4685 51.0256 32.6545L45.7111 41.329C44.9702 41.1548 44.1912 41.2554 43.519 41.6123C42.8467 41.9691 42.3269 42.5579 42.056 43.2692C41.7852 43.9804 41.7818 44.7658 42.0464 45.4794C42.311 46.193 42.8258 46.7863 43.4949 47.149C44.164 47.5117 44.942 47.6191 45.6844 47.4513C46.4268 47.2835 47.083 46.8519 47.5311 46.2367C47.9792 45.6216 48.1888 44.8646 48.1208 44.1065C48.0528 43.3485 47.712 42.6409 47.1616 42.1152L52.4322 33.5154C52.4889 33.4231 52.5268 33.3205 52.5437 33.2135C52.5606 33.1066 52.5563 32.9973 52.5309 32.892C52.5055 32.7867 52.4595 32.6875 52.3957 32.6C52.3318 32.5125 52.2513 32.4385 52.1587 32.3822ZM44.9951 45.8738C44.7002 45.8738 44.4119 45.7864 44.1667 45.6225C43.9215 45.4587 43.7304 45.2258 43.6175 44.9533C43.5046 44.6809 43.4751 44.381 43.5326 44.0918C43.5902 43.8025 43.7322 43.5368 43.9407 43.3283C44.1493 43.1198 44.415 42.9777 44.7042 42.9202C44.9935 42.8627 45.2933 42.8922 45.5658 43.0051C45.8382 43.1179 46.0711 43.309 46.235 43.5543C46.3988 43.7995 46.4863 44.0878 46.4863 44.3827C46.486 44.7781 46.3288 45.1572 46.0492 45.4368C45.7696 45.7163 45.3905 45.8735 44.9951 45.8738Z" fill="#304FFE"/>
</svg>
