<svg width="60" height="70" viewBox="0 0 60 70" fill="none" xmlns="http://www.w3.org/2000/svg">
<path d="M19.9475 22.2859V35.3355H26.9477C28.9914 35.3355 29.3044 35.9949 29.3411 36.6389L29.3638 37.0374H29.4748H30.3312H30.442L30.4646 36.6389C30.483 36.3169 30.5395 35.3355 33.0496 35.3355H40.0926V22.2859L33.5837 22.2889C33.1196 22.2889 31.5508 22.3211 30.8487 22.7339C30.4407 22.9722 30.1327 23.3126 29.9044 23.722C29.6747 23.3074 29.3594 22.9699 28.957 22.7339C28.2979 22.3468 27.0796 22.2889 26.4118 22.2889L19.9475 22.2859ZM31.2769 23.4638C31.6065 23.27 32.5557 23.1348 33.5838 23.1348L39.2473 23.1324V34.4897H33.0509C31.6821 34.4897 30.8397 34.7753 30.3319 35.1811L30.3295 25.5241C30.3295 25.4901 30.3252 25.4601 30.3244 25.4272C30.3399 24.755 30.5231 23.9044 31.2769 23.4638ZM28.5311 23.4638C29.2956 23.9134 29.4725 24.7862 29.4822 25.4633C29.4822 25.4848 29.4765 25.5023 29.4765 25.5243L29.4748 35.1227C28.6877 34.4906 27.4637 34.4897 26.9477 34.4897H20.793V23.1324L26.4139 23.1348C27.3738 23.1348 28.1851 23.2615 28.5311 23.4638ZM40.9335 23.6137H41.7771V37.3548H32.1095C31.7164 38.0371 31.0376 38.3925 30.0078 38.3925C28.9778 38.3925 28.2989 38.0376 27.9084 37.3548H18.2566V36.4358L17.4671 36.7765C17.4047 37.1375 17.0912 37.4125 16.7145 37.4125C16.2901 37.4125 15.9456 37.0671 15.9456 36.6413C15.9456 36.2189 16.2901 35.8742 16.7145 35.8742C16.8711 35.8742 17.0152 35.9204 17.1353 36.0009L18.2568 35.5185V34.5119L17.4887 34.747C17.3943 35.0655 17.1047 35.2991 16.7558 35.2991C16.332 35.2991 15.9871 34.9557 15.9871 34.5317C15.9871 34.1066 16.3318 33.7637 16.7558 33.7637C16.94 33.7637 17.1086 33.8316 17.2415 33.941L18.2552 33.6309V32.5925L17.4718 32.7261C17.3529 32.9987 17.0825 33.1875 16.7672 33.1875C16.3448 33.1875 15.9974 32.8452 15.9974 32.4194C15.9974 31.9955 16.3448 31.6514 16.7672 31.6514C16.9879 31.6514 17.1856 31.7467 17.3262 31.8962L18.2546 31.736V30.6765L17.4346 30.7062C17.3009 30.9273 17.0582 31.0758 16.7816 31.0758C16.3589 31.0758 16.012 30.7321 16.012 30.3086C16.012 29.8846 16.3589 29.5396 16.7816 29.5396C17.0392 29.5396 17.2672 29.6679 17.407 29.8632L18.2552 29.8327V28.6839L17.3886 28.6464C17.2497 28.838 17.0238 28.9646 16.7679 28.9646C16.3455 28.9646 15.9983 28.6196 15.9983 28.1966C15.9983 27.773 16.3455 27.4285 16.7679 27.4285C17.0472 27.4285 17.2911 27.5797 17.4254 27.8028L18.2552 27.8403V26.7828L17.3095 26.6132C17.1694 26.7597 16.9712 26.8531 16.7542 26.8531C16.3304 26.8531 15.9854 26.5088 15.9854 26.0857C15.9854 25.661 16.3304 25.3169 16.7542 25.3169C17.0712 25.3169 17.343 25.5088 17.459 25.7834L18.2552 25.9261V24.8887L17.1985 24.5633C17.0655 24.6735 16.8975 24.7406 16.7128 24.7406C16.2884 24.7406 15.9434 24.3968 15.9434 23.9733C15.9434 23.5495 16.2884 23.2045 16.7128 23.2045C17.0616 23.2045 17.3529 23.439 17.4459 23.7577L18.2559 24.0061V23.6134H19.0995V36.5122H28.4251L28.5335 36.7764C28.6968 37.1798 28.9893 37.5516 30.0069 37.5516C31.0279 37.5516 31.3185 37.1796 31.4822 36.7764L31.5885 36.5122H40.9335V23.6137ZM23.6581 20.6658C21.707 20.6658 20.1255 20.3624 20.1255 19.9881C20.1255 19.6139 21.707 19.3105 23.6581 19.3105C25.6092 19.3105 27.1907 19.6139 27.1907 19.9881C27.1907 20.3624 25.6092 20.6658 23.6581 20.6658ZM19.8673 18.9559L18.6197 15.1469L18.7916 15.0789L20.9161 16.5126L20.9338 16.6576L20.449 16.874C20.3528 16.924 20.3503 16.9998 20.4008 17.0462L21.5972 18.1282L21.7171 18.1167L22.6266 16.7791C22.6882 16.692 22.6645 16.6067 22.557 16.5885L21.947 16.4877V16.3349L23.5261 14.1034H23.7854L25.3657 16.3349V16.4877L24.7557 16.5885C24.6445 16.606 24.623 16.692 24.6862 16.7791L25.5934 18.1167L25.7152 18.1282L26.9979 17.0462C27.0459 17.0006 27.0459 16.924 26.9482 16.874L26.4642 16.6576L26.4826 16.5126L28.5204 15.0789L28.693 15.1469L27.4477 18.9559C26.8133 18.6719 25.36 18.4712 23.6565 18.464C21.954 18.4717 20.4997 18.6726 19.8673 18.9559ZM33.5276 45.5404C33.5276 45.9148 31.9452 46.2182 29.9932 46.2182C28.0413 46.2182 26.4589 45.9148 26.4589 45.5404C26.4589 45.166 28.0413 44.8626 29.9932 44.8626C31.9452 44.8626 33.5276 45.166 33.5276 45.5404ZM34.8561 40.6307L35.0294 40.6987L33.7813 44.5087C33.1499 44.2243 31.6951 44.0242 29.9927 44.0165C28.291 44.0241 26.8366 44.2243 26.2029 44.5087L24.9545 40.6987L25.1264 40.6307L27.2525 42.0637L27.2692 42.2091L26.7852 42.4271C26.6892 42.4738 26.6868 42.5521 26.7372 42.5985L27.9335 43.6787L28.0549 43.6686L28.962 42.33C29.0253 42.2442 29.004 42.1583 28.8926 42.1397L28.2839 42.0403V41.8847L29.862 39.6549H30.1223L31.7001 41.8847V42.0403L31.0911 42.1397C30.9833 42.1583 30.9599 42.2442 31.0226 42.33L31.9292 43.6686L32.0511 43.6787L33.3332 42.5985C33.3812 42.5521 33.3812 42.4738 33.2858 42.4271L32.8026 42.2091L32.8183 42.0637L34.8561 40.6307ZM36.314 19.309C38.2643 19.309 39.8454 19.613 39.8454 19.9881C39.8454 20.3633 38.2643 20.6673 36.314 20.6673C34.3636 20.6673 32.7825 20.3633 32.7825 19.9881C32.7825 19.613 34.3636 19.309 36.314 19.309ZM32.5229 18.9559L31.2751 15.1469L31.4477 15.0789L33.5717 16.5126L33.5903 16.6576L33.1056 16.8615C33.0088 16.9087 33.0071 16.9854 33.0572 17.0318L34.2544 18.1282L34.3746 18.1167L35.2825 16.7791C35.3441 16.692 35.3217 16.6067 35.2152 16.5885L34.6029 16.4877V16.3349L36.1843 14.1034H36.4419L38.022 16.3349V16.4877L37.4125 16.5885C37.3032 16.606 37.2799 16.692 37.3438 16.7791L38.2502 18.1167L38.3707 18.1282L39.6534 17.0462C39.7014 17.0006 39.7014 16.924 39.6034 16.874L39.1188 16.6576L39.1394 16.5126L41.177 15.0789L41.3489 15.1469L40.1026 18.9559C39.4688 18.6719 38.016 18.4712 36.3124 18.464C34.6105 18.4717 33.1542 18.6726 32.5229 18.9559ZM23.0791 25.4367C23.0791 25.2061 22.9731 25.0061 22.847 24.8863C22.6675 24.7112 22.394 24.6464 22.0621 24.6464H21.2761V24.7526C21.4505 24.7688 21.4721 24.7872 21.4721 25.0758V25.9649C21.4721 26.2552 21.4505 26.2743 21.2545 26.2903V26.3947H21.9492C22.5707 26.3947 23.0791 26.1073 23.0791 25.4367ZM21.9302 24.9352C21.9302 24.868 21.934 24.8056 21.9462 24.8C21.967 24.7903 21.9997 24.7816 22.063 24.7816C22.2907 24.7816 22.586 24.9442 22.586 25.5207C22.5854 25.9976 22.3494 26.2521 22.1181 26.2521C21.9901 26.2521 21.9302 26.2056 21.9302 25.968V24.9352ZM24.2078 26.4353C24.7256 26.4353 25.1177 26.0751 25.1177 25.4993C25.1177 24.9664 24.7376 24.6045 24.2482 24.6045C23.6032 24.6045 23.3135 25.1084 23.3135 25.5442C23.3135 26.0392 23.6655 26.4353 24.2078 26.4353ZM24.1918 24.7456C24.4239 24.7456 24.6175 25.0456 24.6175 25.5848C24.6175 26.072 24.4908 26.2956 24.2598 26.2956C23.9948 26.2956 23.8117 25.9399 23.8117 25.4527C23.8117 24.9831 23.9848 24.7456 24.1918 24.7456ZM25.9347 26.3954H25.2697V26.2895C25.4004 26.2802 25.4522 26.2528 25.4691 26.1528C25.4811 26.0696 25.4964 25.9275 25.5103 25.6825L25.54 25.139C25.5576 24.8 25.5376 24.7703 25.3233 24.7526V24.6464L25.957 24.6462L26.4293 25.7112L26.8394 24.6462H27.4924V24.7525C27.2875 24.7709 27.2772 24.7815 27.2869 25.064L27.3122 25.9649C27.3219 26.2632 27.3259 26.2712 27.5198 26.2895V26.3954H26.6772V26.2895C26.8798 26.2712 26.8868 26.2633 26.8838 25.9649L26.8773 25.0175H26.8656L26.3462 26.3656H26.2004L25.7088 25.1127H25.7034L25.6844 25.7097C25.6768 25.9398 25.6804 26.0696 25.6914 26.1528C25.7011 26.2519 25.7601 26.2769 25.9347 26.2895V26.3954ZM28.5732 26.3946H27.7022V26.2902C27.8878 26.2742 27.9108 26.2558 27.9108 25.9648V25.0756C27.9108 24.787 27.8868 24.7686 27.7022 24.7525V24.6462H28.5732V24.7525C28.3893 24.7678 28.3661 24.787 28.3661 25.0756V25.964C28.3661 26.2552 28.3901 26.2735 28.5732 26.2895V26.3946ZM23.0871 29.5174V29.622H22.4189V29.5174C22.5383 29.5118 22.6063 29.4748 22.62 29.3806C22.6296 29.2966 22.6406 29.1494 22.6406 28.8652V28.3708C22.6406 28.173 22.6353 28.137 22.5823 28.0628C22.5422 28.0057 22.4759 27.9874 22.378 27.9788V27.8737H22.9734L23.8673 28.9906H23.8727V28.6308C23.8727 28.3483 23.864 28.1987 23.8543 28.117C23.8383 28.0234 23.7666 27.9882 23.5895 27.9797V27.8744H24.2726V27.9797C24.1398 27.9851 24.0695 28.0225 24.0566 28.117C24.0472 28.1987 24.0359 28.3483 24.0359 28.6308V29.6419H23.8039L22.8102 28.3715H22.8022V28.8661C22.8022 29.1501 22.8135 29.2975 22.8229 29.3814C22.838 29.4747 22.9107 29.5102 23.0871 29.5174ZM25.0264 28.1189C25.0754 28.2692 25.288 28.799 25.3881 29.0623C25.4706 28.8348 25.6424 28.3204 25.6867 28.195C25.7434 28.0301 25.7257 28.0012 25.605 27.9875L25.5223 27.979V27.8739H26.1746V27.979C26.0202 27.9981 25.9833 28.0118 25.8776 28.2563C25.8626 28.2925 25.5339 29.0927 25.3329 29.6412H25.1248C24.9392 29.1564 24.6862 28.4926 24.5893 28.2387C24.5008 28.0089 24.4471 27.9948 24.3175 27.9788V27.8737H25.1855V27.9788L25.098 27.9892C24.997 28.0012 24.997 28.0255 25.0264 28.1189ZM27.0619 29.2581C27.0619 29.1001 26.9588 29.0115 26.7946 28.9354L26.7532 28.9169C26.5326 28.8138 26.2828 28.6745 26.2828 28.3865C26.2828 28.0825 26.5034 27.8352 26.9258 27.8352C27.0091 27.8352 27.0945 27.8459 27.1738 27.8673C27.2347 27.8833 27.2797 27.8939 27.3141 27.9048C27.3243 28.0115 27.3418 28.1416 27.3723 28.3252L27.254 28.3444C27.1953 28.1666 27.102 27.9744 26.8883 27.9744C26.7499 27.9744 26.6529 28.0803 26.6529 28.2088C26.6529 28.3444 26.7593 28.421 26.9322 28.4996L26.9896 28.5268C27.2378 28.6394 27.4516 28.7753 27.4516 29.0906C27.4516 29.4227 27.185 29.6644 26.7666 29.6644C26.6601 29.6644 26.5507 29.6417 26.4767 29.6172C26.3974 29.5891 26.3401 29.5691 26.309 29.5531C26.2873 29.4301 26.253 29.2843 26.2187 29.1034L26.3371 29.0692C26.3944 29.2255 26.5537 29.5235 26.8163 29.5235C26.9562 29.5235 27.0628 29.4326 27.0619 29.2581ZM22.1741 31.1015H23.0445V31.2077C22.8594 31.2239 22.838 31.2421 22.838 31.532V32.421C22.838 32.7114 22.8596 32.7307 23.0445 32.7458V32.8507H22.1741V32.7458C22.3595 32.7307 22.3814 32.7107 22.3814 32.421V31.532C22.3814 31.2421 22.3587 31.2239 22.1741 31.2077V31.1015ZM24.5358 32.3672L24.651 32.3863C24.6352 32.4871 24.5801 32.768 24.5558 32.8505H23.222V32.7457C23.4253 32.7306 23.4465 32.7106 23.4465 32.4209V31.5329C23.4465 31.244 23.4253 31.2249 23.2437 31.2077V31.1032H24.1199V31.2077C23.9254 31.2249 23.9045 31.2441 23.9045 31.5329V32.4558C23.9045 32.5961 23.9092 32.6625 23.9575 32.6863C24.0015 32.7086 24.0623 32.7113 24.1456 32.7113C24.2305 32.7113 24.348 32.7026 24.4032 32.632C24.4473 32.5809 24.4935 32.5087 24.5358 32.3672ZM26.0387 32.3672L26.1538 32.3863C26.137 32.4871 26.0826 32.768 26.0561 32.8505H24.7233V32.7457C24.9258 32.7306 24.949 32.7106 24.949 32.4209V31.5329C24.949 31.244 24.9258 31.2249 24.7447 31.2077V31.1032H25.6203V31.2077C25.4271 31.2249 25.405 31.2441 25.405 31.5329V32.4558C25.405 32.5961 25.4097 32.6625 25.4584 32.6863C25.5016 32.7086 25.5635 32.7113 25.6467 32.7113C25.7324 32.7113 25.8508 32.7026 25.905 32.632C25.9483 32.5809 25.9937 32.5087 26.0387 32.3672ZM27.0897 31.1013H27.7404V31.206C27.5875 31.2257 27.5494 31.2381 27.4433 31.4847C27.4273 31.5199 27.0996 32.3199 26.8973 32.8688H26.6906C26.5056 32.384 26.2528 31.7206 26.1552 31.4672C26.0665 31.2376 26.014 31.223 25.8842 31.2061V31.1015H26.7536V31.2061L26.6592 31.2167C26.5616 31.2288 26.5616 31.2536 26.5895 31.3472C26.64 31.4976 26.8523 32.0282 26.9505 32.2902C27.0353 32.0625 27.2065 31.5488 27.25 31.4222C27.3066 31.2573 27.2889 31.2289 27.169 31.2151L27.0883 31.2061L27.0897 31.206V31.1013ZM32.0601 26.3953H31.3961V26.2893C31.5242 26.28 31.5769 26.2526 31.5929 26.1527C31.607 26.0694 31.621 25.9273 31.635 25.6823L31.6656 25.1389C31.6836 24.7999 31.6616 24.7702 31.4494 24.7525V24.6462H32.0821L32.5542 25.7112L32.9643 24.6462H33.6182V24.7525C33.415 24.7709 33.4036 24.7815 33.4105 25.064L33.437 25.9649C33.4457 26.2632 33.4512 26.2712 33.6465 26.2895V26.3954H32.8026V26.2895C33.0051 26.2712 33.0137 26.2633 33.0105 25.9649L33.0025 25.0175H32.9904L32.4729 26.3656H32.326L31.8352 25.1127H31.8275L31.8095 25.7097C31.8024 25.9398 31.8057 26.0696 31.8149 26.1528C31.8244 26.2519 31.8838 26.2769 32.0603 26.2895L32.0601 26.3953ZM34.7004 26.3946H33.8277V26.2902C34.0132 26.2742 34.0363 26.2558 34.0363 25.9648V25.0756C34.0363 24.787 34.0132 24.7686 33.8277 24.7525V24.6462H34.7004V24.7525C34.5137 24.7678 34.4918 24.787 34.4918 25.0756V25.964C34.4918 26.2552 34.5152 26.2735 34.7004 26.2895V26.3946ZM34.8365 24.751V24.6455H35.432L36.328 25.7619H36.3334V25.4016C36.3334 25.1192 36.3218 24.9709 36.312 24.8878C36.2987 24.7936 36.2253 24.7592 36.0461 24.751V24.6455H36.7346V24.751C36.6015 24.7558 36.53 24.7936 36.5156 24.8878C36.5073 24.9709 36.4953 25.1192 36.4953 25.4016V26.4138H36.2624L35.2677 25.1433H35.2606V25.6375C35.2606 25.9215 35.2732 26.0689 35.2845 26.1512C35.2984 26.2465 35.3693 26.2816 35.5485 26.2915V26.3946H34.8779V26.2915C34.9974 26.284 35.0664 26.2465 35.0787 26.1512C35.092 26.0689 35.1013 25.9215 35.1013 25.6375V25.1433C35.1013 24.9448 35.0951 24.9105 35.0413 24.835C35.0013 24.7783 34.9352 24.7592 34.8365 24.751ZM36.6906 26.3954H37.3174V26.2922L37.2385 26.2825C37.114 26.2695 37.114 26.2422 37.15 26.1265L37.2305 25.8695H37.6735L37.7689 26.1432C37.8048 26.2398 37.8001 26.2672 37.6993 26.28L37.6189 26.2929V26.3961H38.4644V26.2929C38.333 26.2742 38.283 26.2618 38.1982 26.0273C38.0956 25.7541 37.98 25.435 37.8628 25.1159L37.6815 24.6075L37.4954 24.6447L36.9578 26.0359C36.8671 26.2618 36.8266 26.2728 36.6906 26.2929V26.3954ZM37.4437 25.1921H37.4531L37.6219 25.7062H37.2781L37.4437 25.1921ZM33.6635 28.0155L33.5988 28.0154V29.1934C33.5988 29.4837 33.6197 29.5028 33.8456 29.5179V29.6226H32.9043V29.5179C33.1195 29.5028 33.1402 29.4837 33.1402 29.1934V28.0154H33.0929C32.9163 28.0154 32.8422 28.0468 32.8 28.0956C32.7681 28.1355 32.7354 28.2057 32.7001 28.3561H32.5867C32.5983 28.1299 32.6147 27.9435 32.6194 27.8072H32.7022C32.7429 27.8689 32.7695 27.8743 32.8415 27.8743H33.915C33.9856 27.8743 33.9969 27.8579 34.0409 27.8072H34.1244C34.1276 27.9203 34.1408 28.149 34.1541 28.3484L34.0362 28.3561C33.9948 28.1949 33.9658 28.1245 33.9244 28.0788C33.8791 28.0308 33.7916 28.0155 33.6635 28.0155ZM34.5497 29.1927V28.3034C34.5497 28.0147 34.5278 27.9957 34.3425 27.9788V27.8737H35.2131V27.9788C35.0279 27.9955 35.0059 28.0147 35.0059 28.3034V29.1927C35.0059 29.4828 35.0279 29.5021 35.2131 29.5174V29.622H34.3425V29.5174C34.5278 29.5021 34.5498 29.4828 34.5497 29.1927ZM37.2432 28.727C37.2432 28.1949 36.8648 27.834 36.3702 27.834C35.7298 27.834 35.4381 28.3364 35.4381 28.7714C35.4381 29.2661 35.7906 29.663 36.3351 29.663C36.85 29.6637 37.2432 29.3038 37.2432 28.727ZM35.938 28.6812C35.938 28.2116 36.1106 27.973 36.3185 27.973C36.5486 27.973 36.7432 28.2731 36.7432 28.8124C36.7432 29.2996 36.6171 29.5234 36.3845 29.5234C36.1205 29.5235 35.938 29.1684 35.938 28.6812ZM34.4196 32.745V32.8497H33.5761V32.745C33.7789 32.7267 33.7867 32.7177 33.7836 32.4193L33.776 31.4733H33.764L33.2453 32.8208H33.1022L32.6084 31.568H32.6013L32.5833 32.1641C32.5757 32.3946 32.5787 32.524 32.5899 32.6079C32.6006 32.708 32.6587 32.7321 32.8342 32.745V32.8497H32.1693V32.745C32.2983 32.7337 32.3507 32.708 32.3673 32.6079C32.3807 32.524 32.3945 32.3826 32.4085 32.1376L32.4399 31.5945C32.4588 31.2558 32.4375 31.2266 32.2226 31.2079V31.1016H32.8555L33.3275 32.1673L33.7396 31.1016H34.3936V31.2079C34.187 31.2266 34.1775 31.236 34.1857 31.5193L34.2124 32.4193C34.2198 32.7176 34.2245 32.7274 34.4196 32.745ZM35.9266 32.3519L36.0461 32.3703C36.032 32.5024 35.9753 32.778 35.9514 32.8497H34.5841V32.7466C34.7888 32.7281 34.81 32.7106 34.81 32.4209V31.5329C34.81 31.2413 34.7888 31.2221 34.6092 31.2069V31.1022H35.8827C35.8875 31.1479 35.8987 31.3448 35.9154 31.5464L35.7952 31.5543C35.7674 31.4229 35.7392 31.3479 35.694 31.3038C35.6498 31.2586 35.5625 31.2421 35.4185 31.2421H35.3747C35.2716 31.2421 35.2665 31.2421 35.2665 31.3358V31.855H35.4013C35.6317 31.855 35.641 31.8397 35.6671 31.6358H35.7844V32.2695H35.6671C35.6411 32.0343 35.6317 32.0183 35.4013 32.0183H35.2665V32.4558C35.2665 32.5945 35.2716 32.6626 35.32 32.6872C35.3626 32.7086 35.4247 32.7106 35.5083 32.7106C35.6153 32.7106 35.735 32.6937 35.7938 32.6305C35.8372 32.5809 35.8857 32.4833 35.9266 32.3519ZM37.5659 32.481C37.4626 32.208 37.3469 31.8895 37.2312 31.5695L37.0499 31.0616L36.8647 31.0983L36.3264 32.4897C36.2371 32.7154 36.1973 32.7267 36.0591 32.7458V32.8498H36.6858V32.7458L36.6071 32.737C36.4826 32.724 36.4826 32.697 36.5204 32.5809L36.6013 32.3239H37.0421L37.1373 32.5962C37.1726 32.6939 37.1686 32.7216 37.0679 32.7346L36.9874 32.7466V32.8507H37.8328V32.7466C37.6992 32.729 37.6515 32.7163 37.5659 32.481ZM36.6452 32.1626L36.8124 31.6488H36.8217L36.9905 32.1626H36.6452ZM27.5677 54.4912C27.5677 54.8794 27.2524 55.1947 26.8627 55.1947C26.4753 55.1947 26.1626 54.8794 26.1626 54.4912C26.1626 54.1035 26.4753 53.7864 26.8627 53.7864C27.2524 53.7864 27.5677 54.1044 27.5677 54.4912ZM34.702 55.6623C34.702 56.0507 34.3872 56.3656 33.9991 56.3656C33.6104 56.3656 33.295 56.0507 33.295 55.6623C33.295 55.2739 33.6104 54.9585 33.9991 54.9585C34.3872 54.9585 34.702 55.2739 34.702 55.6623ZM30.6689 4.8223C30.6689 5.21083 30.3541 5.52568 29.9655 5.52568C29.577 5.52568 29.2621 5.21083 29.2621 4.8223C29.2621 4.43377 29.577 4.11892 29.9655 4.11892C30.3541 4.11892 30.6689 4.43377 30.6689 4.8223ZM47.4113 11.3776C47.4113 11.7659 47.0966 12.0807 46.7085 12.0807C46.3198 12.0807 46.005 11.7659 46.005 11.3776C46.005 10.9888 46.3198 10.674 46.7085 10.674C47.0966 10.674 47.4113 10.9888 47.4113 11.3776ZM9.03725 41.4653C9.66852 41.0207 10.1734 40.716 10.6405 40.716C11.3253 40.7177 11.8222 41.162 12.1291 41.6038C12.3992 41.9934 12.5362 42.4083 12.5345 42.8397C12.5345 43.3319 12.3695 43.7312 11.4892 44.3401L8.94972 46.1511L8.4818 45.4768C8.4818 45.4768 11.0839 43.6241 11.1243 43.5955C11.5749 43.2852 11.767 43.0568 11.767 42.7014C11.767 42.4764 11.6854 42.2325 11.5221 41.9973C11.2686 41.6318 10.9404 41.5146 10.6526 41.513C10.3923 41.513 10.1126 41.6965 9.60998 42.0458L7.22324 43.6654L6.76275 43.0044L9.03725 41.4653ZM6.34652 39.061L9.84115 37.6771L10.1013 38.3906L5.323 40.2252L5.05584 39.4938L7.83553 36.1121L4.27092 37.3577L4.0119 36.645L8.84391 34.95L9.1125 35.6826L6.34652 39.061ZM8.47166 32.8578L3.41118 33.6094L3.29081 32.799L8.35128 32.0473L8.47166 32.8578ZM8.17066 28.7417L2.98681 30.2884L2.99224 29.4371L7.19554 28.2597L3.13888 26.6977L3.15873 25.8497L8.20507 27.8987L8.17066 28.7417ZM9.36766 16.7452C9.2957 16.766 9.21102 16.8102 9.12592 16.8692C9.14634 16.7781 9.17989 16.6903 9.18047 16.5956C9.18204 16.4515 9.16133 16.3085 9.11721 16.1795C9.02026 15.8795 8.80579 15.6361 8.48294 15.4571C8.24105 15.3235 7.99959 15.2551 7.75528 15.2551C7.03148 15.2571 6.69706 15.6703 6.23443 16.5041L5.63428 17.5804L10.1403 20.024L10.5304 19.3222L8.65628 18.3007L8.76609 18.0983C9.08308 17.5279 9.18846 17.4411 9.99508 17.5095L11.4535 17.6397L11.8705 16.8829L10.1884 16.7387C9.85001 16.7066 9.58456 16.6828 9.36766 16.7452ZM8.1628 17.7893L8.05928 17.9791L6.61767 17.2052L6.84442 16.8051C7.14243 16.2606 7.35775 16.053 7.67446 16.0546C7.79126 16.0546 7.93948 16.0851 8.08898 16.166C8.2806 16.273 8.42768 16.45 8.48194 16.6394C8.50279 16.7133 8.51092 16.7875 8.51092 16.8605C8.50964 17.1646 8.34015 17.4693 8.1628 17.7893ZM14.0038 7.53359L17.1063 11.5987L16.4552 12.0957L13.3526 8.03064L14.0038 7.53359ZM18.5048 5.60379L20.5433 9.51866L19.8179 9.89805L17.7791 5.98147L16.483 6.65543L16.1603 6.0343L19.4682 4.31268L19.7896 4.93425L18.5048 5.60379ZM25.2752 2.5171L24.5816 5.93663L25.1432 7.88086L24.3625 8.10489L23.8136 6.17766L21.3853 3.64457L22.226 3.39968L23.9735 5.21983L24.4136 2.75727L25.2752 2.5171ZM42.6147 5.3432L45.0557 6.78252L44.7024 7.38552L42.9568 6.357L42.2396 7.57472L43.8804 8.54283L43.535 9.13312L41.8915 8.16515L40.7176 10.1614L40.0175 9.74769L42.6147 5.3432ZM52.6628 21.7627L50.4035 21.249L50.13 20.4107L53.1582 21.1409L55.0196 18.9128L55.3092 19.7954L53.9241 21.3811L55.9818 21.8444L56.2557 22.6739L53.4396 21.9941L51.4387 24.3921L51.1535 23.5228L52.6628 21.7627ZM51.694 26.1665L56.793 25.7504L57.0229 28.5781L56.3257 28.6339L56.1616 26.6162L54.7537 26.7314L54.9055 28.6308L54.2242 28.6852L54.0696 26.7857L51.7627 26.9753L51.694 26.1665ZM53.9504 30.7265C53.3596 30.7265 52.8163 30.8854 52.3862 31.1976C51.6143 31.7566 51.4754 32.5594 51.4754 33.0299C51.4754 34.759 53.0975 35.4513 54.3196 35.4513C54.9064 35.4513 55.4415 35.2919 55.8632 34.9852C56.7259 34.3621 56.7728 33.4254 56.7728 33.1217C56.7718 31.6128 55.3864 30.7265 53.9504 30.7265ZM55.4796 34.2994C55.1818 34.5147 54.793 34.6217 54.3536 34.6217C53.3569 34.6217 52.1941 34.0795 52.1941 33.0751C52.1941 32.7104 52.3209 32.223 52.7689 31.8968C53.0729 31.6758 53.4676 31.5576 53.9097 31.5576C54.4176 31.5576 55.3329 31.7015 55.8115 32.364C55.9781 32.5902 56.0631 32.8559 56.0602 33.1375C56.0584 33.5299 55.8999 33.9963 55.4796 34.2994ZM51.9268 18.1424C52.5597 17.7412 53.2628 16.9966 53.2628 15.9875C53.2628 15.5691 53.1449 15.1566 52.9027 14.7737C52.4549 14.0674 51.7534 13.7025 50.9813 13.7025C50.4657 13.7025 49.9156 13.8659 49.386 14.201C48.402 14.8254 48.0434 15.7173 48.0434 16.3693C48.0434 16.7912 48.1607 17.2046 48.4007 17.5849C48.9446 18.4472 49.7628 18.6558 50.3159 18.6535C50.8441 18.6519 51.4027 18.4769 51.9268 18.1424ZM49.0267 17.2247C48.8795 16.9957 48.8092 16.7461 48.8068 16.4974C48.8052 15.9172 49.1726 15.3245 49.842 14.8987C50.2858 14.6163 50.7219 14.4772 51.1126 14.4803C51.6055 14.4803 52.0067 14.6979 52.2747 15.1187C52.4322 15.3699 52.5048 15.6348 52.5048 15.8989C52.5048 16.4631 52.1472 17.0174 51.4987 17.4272C51.0453 17.7168 50.5874 17.8686 50.1846 17.8686C49.7266 17.8686 49.3107 17.6748 49.0267 17.2247ZM37.0303 3.16836C35.9624 3.16836 35.0363 3.88603 34.6605 5.16085C34.5776 5.44343 34.5262 5.72344 34.5262 5.99517C34.5262 6.50636 34.6125 6.91146 34.82 7.29313C35.2937 8.15958 36.1592 8.45444 36.8172 8.45444C37.189 8.45444 37.5471 8.36891 37.8758 8.18914C38.7387 7.71765 39.308 6.62259 39.308 5.57437C39.308 5.11802 39.2207 4.69036 39.0188 4.32325C38.6033 3.57003 37.8338 3.16836 37.0303 3.16836ZM36.7666 7.72978C36.3978 7.72978 35.8606 7.54887 35.5623 7.00241C35.4168 6.73825 35.3531 6.41755 35.3531 6.08542C35.3531 5.16999 35.9624 3.88517 37.0787 3.88517C37.7039 3.88517 38.4892 4.34995 38.4892 5.50726C38.4892 6.24334 37.9706 7.72978 36.7666 7.72978ZM8.61502 24.7175L3.66692 23.3614L4.51195 20.52L5.18406 20.7092L4.56079 22.7574L5.92543 23.1318L6.45289 21.2721L7.11144 21.4596L6.58654 23.3127L8.12996 23.7358L8.70283 21.7148L9.38837 21.9094L8.61502 24.7175ZM14.3602 13.4979C14.3602 13.9316 14.1897 14.3171 13.8498 14.6988C13.1986 15.4286 12.3201 15.5094 12.3201 15.5094L12.1465 14.8237C12.6643 14.7034 13.0562 14.5057 13.292 14.2393C13.4803 14.0307 13.5723 13.7969 13.5723 13.5916C13.5723 13.3985 13.4897 13.2176 13.3332 13.0778C13.2041 12.9635 13.0499 12.9236 12.8794 12.9266C12.5513 12.9266 12.1569 13.1145 11.8338 13.2489C11.2114 13.5062 10.5557 13.7128 9.96909 13.1884C9.67138 12.9219 9.51245 12.5868 9.51245 12.2148C9.51245 11.8209 9.66752 11.4025 9.99965 11.0314C10.7099 10.2352 11.4367 10.2887 11.4367 10.2887L11.5596 10.965C11.5596 10.965 11.0006 10.9817 10.5631 11.4736C10.3716 11.6879 10.2747 11.9107 10.2747 12.1114C10.2747 12.2786 10.3403 12.4224 10.47 12.5384C10.8243 12.8545 11.4297 12.504 11.8077 12.352C12.0984 12.2312 12.5122 12.0633 12.9291 12.0633C13.2351 12.0633 13.5561 12.1511 13.8474 12.4121C14.1888 12.7154 14.3602 13.097 14.3602 13.4979ZM50.3375 37.3428L52.27 38.2187L52.1748 38.4352C51.9113 39.0297 51.8102 39.127 51.004 39.1313H49.5406L49.1906 39.9205L50.8774 39.9158C51.2207 39.9158 51.4861 39.9158 51.694 39.8354C51.7627 39.8097 51.8394 39.7683 51.9096 39.7096C51.9058 39.7533 51.8923 39.7957 51.8908 39.8399C51.8878 40.0283 51.9235 40.2143 51.994 40.377C52.2256 40.9159 52.8569 41.1817 53.3164 41.18C54.1303 41.18 54.4411 40.6925 54.8377 39.7971C54.8525 39.7635 55.3116 38.7008 55.3116 38.7008L50.6613 36.6067L50.3375 37.3428ZM52.8076 38.6908L52.8929 38.4956L54.3696 39.1564L54.2045 39.5518C53.929 40.1752 53.749 40.3754 53.3552 40.3754C53.1243 40.3754 52.7357 40.244 52.5863 39.8619C52.5489 39.7651 52.5336 39.6659 52.535 39.5682C52.5378 39.2876 52.6701 38.9969 52.8076 38.6908ZM47.6445 42.1817C47.1146 42.8458 46.7113 43.4388 46.7113 44.2053C46.7113 44.8573 47.0066 45.5978 47.756 46.1932C48.2513 46.5916 48.8115 46.8048 49.3892 46.8048C50.1015 46.8048 50.6726 46.5916 51.5566 45.4807L52.3643 44.464L48.3691 41.2738L47.6445 42.1817ZM51.3219 44.6712L51.1007 44.9508C50.5578 45.6299 50.1891 46.0314 49.4673 46.0314C49.0592 46.0314 48.6787 45.8751 48.2825 45.5572C47.8794 45.2375 47.4526 44.7352 47.4526 44.0966C47.4526 43.6521 47.6933 43.2279 48.0651 42.7638L48.4038 42.3372L51.3219 44.6712ZM59.2966 29.2518C59.2966 13.1215 46.1545 0 29.9992 0C13.8458 0 0.703461 13.1208 0.703461 29.2518C0.704889 38.9275 5.48164 47.9464 13.4873 53.4104C14.2754 56.3427 16.9558 58.511 20.144 58.511C21.006 58.511 21.8411 58.3481 22.6374 58.0415C23.7085 58.3948 24.8168 58.6883 25.9193 58.9149C25.6087 59.8042 25.1544 60.645 24.7214 61.3755C24.7214 61.3755 24.7328 61.3724 24.7473 61.3691C24.7376 61.3755 24.7299 61.3795 24.7214 61.3841L25.3313 61.9935C25.4889 61.9098 25.6634 61.8563 25.8536 61.8563C26.4562 61.8563 26.946 62.347 26.946 62.9516C26.946 63.553 26.4562 64.0452 25.8536 64.0452C25.3263 64.0452 24.8642 63.7085 24.6232 63.346C24.6232 63.346 24.4803 63.8398 24.4803 64.4877C24.476 66.5893 26.769 68.9913 29.9497 70C33.13 69.0123 35.4232 66.594 35.422 64.4907C35.422 63.7679 35.2772 63.346 35.2772 63.346C35.0333 63.6399 34.6379 64.0452 34.0412 64.0452C33.4372 64.0452 32.948 63.553 32.948 62.9516C32.948 62.3482 33.4372 61.8563 34.0412 61.8563C34.2514 61.8563 34.4459 61.9185 34.6139 62.025L35.2068 61.4309C35.2219 61.4356 35.2298 61.4363 35.2298 61.4363C34.8938 60.6363 34.6497 59.9002 34.4825 59.1915C39.7505 58.4836 44.1963 56.2541 47.7294 52.5384L47.7266 52.5352C55.0803 46.948 59.2966 38.4729 59.2966 29.2518ZM20.1453 57.6882C16.8192 57.6882 14.1133 54.9747 14.1133 51.6399C14.1133 50.5946 14.3804 49.6109 14.8469 48.7514C15.1562 49.035 15.4883 49.3265 15.834 49.6219C15.5402 50.2432 15.3717 50.9314 15.3717 51.6596C15.3717 53.4747 16.2861 54.9727 18.0192 55.9953C19.0123 56.5803 20.1386 57.1108 21.3316 57.5727C20.9416 57.6493 20.5477 57.6882 20.1453 57.6882ZM30.0008 48.8875C28.7461 48.8875 27.5081 48.7669 26.2971 48.5348C25.1298 46.2432 22.7327 44.7663 20.1452 44.7663C19.5095 44.7663 18.896 44.8617 18.3127 45.0211C13.3367 41.3251 10.37 35.448 10.37 29.2516C10.37 18.4247 19.1758 9.61547 30.0007 9.61547C40.824 9.61547 49.6311 18.4247 49.6311 29.2516C49.6313 40.0777 40.8241 48.8875 30.0008 48.8875ZM34.3685 49.2364C33.7792 50.0764 33.431 51.2451 33.3264 52.4266C31.4683 51.9484 29.7789 51.3038 28.3097 50.6343C28.5892 50.092 29.3917 49.7091 29.9998 49.7091C31.5001 49.7091 32.9604 49.5421 34.3685 49.2364ZM28.1461 49.6235C27.8965 49.8091 27.6945 50.0317 27.5524 50.2749C26.812 49.917 25.8796 49.4514 25.2696 49.1108C26.1339 49.3013 27.2594 49.5421 28.1461 49.6235ZM20.1453 45.5899C22.1671 45.5899 24.0575 46.6267 25.1672 48.2871C24.1942 48.0409 23.2421 47.7201 22.3114 47.3247L22.3084 47.3293L22.2792 47.3121C21.6275 47.0057 20.9309 46.8511 20.2073 46.8511C18.5979 46.8511 17.1726 47.6388 16.2907 48.8483C15.9213 48.6428 15.5516 48.427 15.1882 48.2011C16.2783 46.6246 18.0918 45.5899 20.1453 45.5899ZM34.0426 61.013C32.962 61.013 32.0751 61.7772 32.0751 62.9516C32.0751 64.0984 32.9745 64.886 34.0426 64.886C34.2031 64.886 34.359 64.8593 34.5084 64.822C34.2858 66.4465 32.3917 68.2654 29.9512 69.0803C27.5318 68.2708 25.6393 66.4378 25.389 64.822C25.5393 64.861 25.693 64.886 25.8555 64.886C27.0195 64.886 27.8205 64.0718 27.8205 62.9516C27.8205 61.8794 26.9814 61.0409 25.8989 61.0184C26.2276 60.4121 26.5443 59.7697 26.7786 59.0802C28.1223 59.315 29.4455 59.4416 30.6759 59.4416C31.6857 59.4416 32.6637 59.3869 33.6219 59.2901C33.7482 59.8434 33.9365 60.4244 34.1593 61.0229C34.1199 61.0202 34.081 61.013 34.0426 61.013ZM30.6749 58.6195C26.7468 58.6195 21.8428 57.2836 18.4742 55.2966C17.4557 54.6941 16.2364 53.5745 16.2364 51.6611C16.2364 51.1453 16.3379 50.6498 16.5173 50.1976C17.7748 51.237 19.0728 52.2118 19.8906 52.6579C20.0769 52.7596 20.185 52.8111 20.4057 52.8111C20.9274 52.8111 21.3523 52.3844 21.3523 51.8594C21.3523 51.4596 21.1363 51.1335 20.7753 50.9757C20.0775 50.6725 18.6199 50.0694 17.0488 49.2544C17.7758 48.2968 18.9199 47.673 20.2073 47.673C20.7963 47.673 21.363 47.7996 21.8906 48.0496L22.9694 48.6776C26.3929 50.7694 35.1998 56.1318 45.8336 53.1831C41.7974 56.8241 36.8252 58.6195 30.6749 58.6195ZM47.1684 51.9078C42.4084 53.5925 37.9666 53.4771 34.1765 52.6306C34.3005 50.9383 35.002 49.1294 36.0718 48.7917C44.4197 46.2032 50.4987 38.4235 50.4987 29.2518C50.4987 17.9701 41.3022 8.79257 30.0008 8.79257C18.6986 8.79257 9.50446 17.9701 9.50446 29.2518C9.50446 35.527 12.4339 41.4879 17.3679 45.3525C16.1983 45.8672 15.1973 46.7008 14.4747 47.7362C14.1013 47.4822 13.741 47.2182 13.4068 46.9432L13.2204 47.1299C13.4435 47.4002 13.7914 47.7575 14.2068 48.1543C13.5998 49.1763 13.2477 50.367 13.2477 51.6389C13.2477 51.837 13.2601 52.0305 13.2771 52.225C5.93314 46.8733 1.56934 38.3662 1.56934 29.2506C1.56905 13.5763 14.3242 0.823469 30.0008 0.823469C45.6776 0.823469 58.4307 13.5763 58.4307 29.2518C58.4307 38.2297 54.3256 46.4792 47.1684 51.9078Z" fill="white"/>
</svg>
